<?xml version="1.0" encoding="UTF-8" standalone="no"?>
<!-- Created with Inkscape (http://www.inkscape.org/) -->

<svg
   xmlns:dc="http://purl.org/dc/elements/1.1/"
   xmlns:cc="http://creativecommons.org/ns#"
   xmlns:rdf="http://www.w3.org/1999/02/22-rdf-syntax-ns#"
   xmlns:svg="http://www.w3.org/2000/svg"
   xmlns="http://www.w3.org/2000/svg"
   xmlns:sodipodi="http://sodipodi.sourceforge.net/DTD/sodipodi-0.dtd"
   xmlns:inkscape="http://www.inkscape.org/namespaces/inkscape"
   width="544.28125"
   height="745"
   id="svg2"
   version="1.1"
   inkscape:version="0.92.2 (5c3e80d, 2017-08-06)"
   sodipodi:docname="blade_logo.svg"
   inkscape:export-filename="/home/rgarcia/git/ink-libgdx-template/assets/ui/1/blade_logo.png"
   inkscape:export-xdpi="50"
   inkscape:export-ydpi="50">
  <sodipodi:namedview
     id="base"
     pagecolor="#000000"
     bordercolor="#666666"
     borderopacity="1.0"
     inkscape:pageopacity="0"
     inkscape:pageshadow="2"
     inkscape:zoom="0.27945399"
     inkscape:cx="345.55474"
     inkscape:cy="226.53885"
     inkscape:document-units="px"
     inkscape:current-layer="layer1"
     showgrid="false"
     borderlayer="true"
     inkscape:window-width="1853"
     inkscape:window-height="1025"
     inkscape:window-x="67"
     inkscape:window-y="27"
     inkscape:window-maximized="1"
     showguides="true"
     inkscape:guide-bbox="true"
     fit-margin-top="0"
     fit-margin-left="0"
     fit-margin-right="0"
     fit-margin-bottom="0" />
  <defs
     id="defs4">
    <clipPath
       id="clipPath1216"
       clipPathUnits="userSpaceOnUse">
      <path
         style="fill:none;stroke:#ff0000;stroke-width:0.77522433px;stroke-linecap:butt;stroke-linejoin:miter;stroke-opacity:1"
         d="m 179.28039,165.89389 c 0,0 15.82633,4.09044 31.978,2.90709 10.07686,-0.73828 41.1838,-9.20579 41.1838,-9.20579 0,0 -25.69177,26.43254 -41.1838,27.13285 -13.66924,0.61792 -31.978,-20.83415 -31.978,-20.83415 z"
         id="path1218"
         inkscape:connector-curvature="0"
         sodipodi:nodetypes="cscsc" />
    </clipPath>
    <filter
       inkscape:collect="always"
       style="color-interpolation-filters:sRGB"
       id="filter946"
       x="-0.053243871"
       width="1.1064877"
       y="-3.4179911"
       height="7.8359822">
      <feGaussianBlur
         inkscape:collect="always"
         stdDeviation="5.8062949"
         id="feGaussianBlur948" />
    </filter>
  </defs>
  <metadata
     id="metadata7">
    <rdf:RDF>
      <cc:Work
         rdf:about="">
        <dc:format>image/svg+xml</dc:format>
        <dc:type
           rdf:resource="http://purl.org/dc/dcmitype/StillImage" />
        <dc:title></dc:title>
      </cc:Work>
    </rdf:RDF>
  </metadata>
  <g
     inkscape:groupmode="layer"
     id="layer2"
     inkscape:label="bg"
     transform="translate(-109.96875,209.49124)"
     sodipodi:insensitive="true" />
  <g
     id="layer1"
     inkscape:groupmode="layer"
     inkscape:label="Capa 1"
     transform="translate(-109.96875,-98.78125)">
    <g
       id="g3076"
       inkscape:label="Gear24"
       transform="matrix(2.7502377,0,0,2.7502377,350,532.3622)" />
    <g
       id="g3914"
       transform="matrix(0.58836687,0,0,0.58836687,-728.76406,-564.13486)"
       style="stroke:#000000">
      <path
         transform="matrix(0.57462856,0.46212248,-0.46212248,0.57462856,-54.42038,1278.8025)"
         d="m -511.4286,-21.923536 -88.89131,-75.305595 -102.53725,55.305596 75.30559,-88.891315 -55.3056,-102.53725 88.89131,75.3056 102.53726,-55.3056 -75.3056,88.89131 z"
         inkscape:randomized="0"
         inkscape:rounded="0"
         inkscape:flatsided="false"
         sodipodi:arg2="1.6748963"
         sodipodi:arg1="0.8894981"
         sodipodi:r2="30.5742"
         sodipodi:r1="136.0972"
         sodipodi:cy="-127.63782"
         sodipodi:cx="-597.14288"
         sodipodi:sides="4"
         id="path3890"
         style="color:#000000;fill:#000000;fill-opacity:1;fill-rule:nonzero;stroke:none;stroke-width:5;marker:none;visibility:visible;display:inline;overflow:visible;enable-background:accumulate"
         sodipodi:type="star" />
      <path
         transform="matrix(0.89859155,0,0,0.89859155,56.808851,191.82103)"
         d="M -315.71429,820.93359 A 124.28571,124.28571 0 0 1 -440,945.21931 124.28571,124.28571 0 0 1 -564.28571,820.93359 124.28571,124.28571 0 0 1 -440,696.64788 124.28571,124.28571 0 0 1 -315.71429,820.93359 Z"
         sodipodi:ry="124.28571"
         sodipodi:rx="124.28571"
         sodipodi:cy="820.93359"
         sodipodi:cx="-440"
         id="path3894"
         style="color:#000000;fill:none;stroke:#000000;stroke-width:5;marker:none;visibility:visible;display:inline;overflow:visible;enable-background:accumulate"
         sodipodi:type="arc" />
      <path
         sodipodi:type="arc"
         style="color:#000000;fill:none;stroke:#000000;stroke-width:5;marker:none;visibility:visible;display:inline;overflow:visible;enable-background:accumulate"
         id="path3896"
         sodipodi:cx="-440"
         sodipodi:cy="820.93359"
         sodipodi:rx="124.28571"
         sodipodi:ry="124.28571"
         d="M -315.71429,820.93359 A 124.28571,124.28571 0 0 1 -440,945.21931 124.28571,124.28571 0 0 1 -564.28571,820.93359 124.28571,124.28571 0 0 1 -440,696.64788 124.28571,124.28571 0 0 1 -315.71429,820.93359 Z"
         transform="matrix(1.2591549,0,0,1.2591549,215.45674,-104.17756)" />
      <text
         id="text3898"
         y="810.93359"
         x="-351.42859"
         style="font-style:normal;font-weight:normal;line-height:0%;font-family:sans-serif;letter-spacing:0px;word-spacing:0px;fill:#000000;fill-opacity:1;stroke:none"
         xml:space="preserve"><tspan
           y="810.93359"
           x="-351.42859"
           id="tspan3900"
           sodipodi:role="line"
           style="font-size:40px;line-height:1.25;font-family:sans-serif">N</tspan></text>
      <text
         transform="rotate(90)"
         xml:space="preserve"
         style="font-style:normal;font-weight:normal;line-height:0%;font-family:sans-serif;letter-spacing:0px;word-spacing:0px;fill:#000000;fill-opacity:1;stroke:none"
         x="918.7475"
         y="221.25978"
         id="text3902"><tspan
           sodipodi:role="line"
           id="tspan3904"
           x="918.7475"
           y="221.25978"
           style="font-size:40px;line-height:1.25;font-family:sans-serif">E</tspan></text>
      <text
         transform="rotate(-90)"
         id="text3906"
         y="-458.49191"
         x="-950.42438"
         style="font-style:normal;font-weight:normal;line-height:0%;font-family:sans-serif;letter-spacing:0px;word-spacing:0px;fill:#000000;fill-opacity:1;stroke:none"
         xml:space="preserve"><tspan
           y="-458.49191"
           x="-950.42438"
           id="tspan3908"
           sodipodi:role="line"
           style="font-size:40px;line-height:1.25;font-family:sans-serif">W</tspan></text>
      <text
         xml:space="preserve"
         style="font-style:normal;font-weight:normal;line-height:0%;font-family:sans-serif;letter-spacing:0px;word-spacing:0px;fill:#000000;fill-opacity:1;stroke:none"
         x="-352.85715"
         y="1078.0764"
         id="text3910"><tspan
           sodipodi:role="line"
           id="tspan3912"
           x="-352.85715"
           y="1078.0764"
           style="font-size:40px;line-height:1.25;font-family:sans-serif">S</tspan></text>
    </g>
    <text
       id="text3951"
       y="662.56805"
       x="261.59869"
       style="font-style:normal;font-weight:normal;font-size:13.28050995px;line-height:0%;font-family:sans-serif;letter-spacing:0px;word-spacing:0px;fill:#ffffff;fill-opacity:1;stroke:none;stroke-width:1.10670924"
       xml:space="preserve"><tspan
         style="font-style:normal;font-variant:normal;font-weight:normal;font-stretch:normal;font-size:43.91954041px;line-height:1.25;font-family:sans-serif;-inkscape-font-specification:Sans;fill:#ffffff;stroke-width:1.10670924"
         y="662.56805"
         x="261.59869"
         id="tspan3953"
         sodipodi:role="line">BLADE INK</tspan></text>
    <g
       id="g3079"
       transform="matrix(0.74063431,0,0,0.74063431,106.55662,36.414767)">
      <path
         sodipodi:nodetypes="ccsc"
         inkscape:connector-curvature="0"
         id="path5377-2"
         d="m 305.83269,390.19253 c -51.19988,-14.49335 -92.22995,-51.02114 -154.72178,-41.04858 0,0 18.73134,44.87307 63.15179,52.10014 51.60886,8.39642 91.56999,-11.05156 91.56999,-11.05156 z"
         style="fill:#ffffff;stroke:none;display:inline" />
      <path
         style="fill:#ffffff;stroke:none;display:inline"
         d="m 438.26176,393.69439 c 51.19987,-14.49336 92.22994,-51.0211 154.72181,-41.04853 0,0 -18.73138,44.87312 -63.15183,52.10013 -51.60887,8.39642 -91.56998,-11.0516 -91.56998,-11.0516 z"
         id="path5379-6"
         inkscape:connector-curvature="0"
         sodipodi:nodetypes="ccsc" />
      <ellipse
         style="color:#000000;fill:#000000;fill-opacity:1;fill-rule:nonzero;stroke:none;stroke-width:0.72375;marker:none;visibility:visible;display:inline;overflow:visible;enable-background:accumulate"
         id="path6632"
         transform="matrix(7.3470639,0,0,7.3470639,-1257.2646,-536.16221)"
         sodipodi:type="arc"
         sodipodi:ry="3.125"
         sodipodi:rx="3.75"
         sodipodi:cy="123.125"
         sodipodi:cx="241.875" />
      <ellipse
         style="color:#000000;fill:#000000;fill-opacity:1;fill-rule:nonzero;stroke:none;stroke-width:0.72375;marker:none;visibility:visible;display:inline;overflow:visible;enable-background:accumulate"
         id="path6632-4"
         transform="matrix(7.3470639,0,0,7.3470639,-1556.0452,-543.81539)"
         sodipodi:type="arc"
         sodipodi:ry="3.125"
         sodipodi:rx="3.75"
         sodipodi:cy="123.125"
         sodipodi:cx="241.875" />
    </g>
    <g
       style="display:inline"
       clip-path="url(#clipPath1216)"
       id="g1195"
       transform="matrix(-3.6276585,0,0,2.4234465,1161.3328,60.164376)">
      <rect
         style="color:#000000;fill:#000000;fill-opacity:1;fill-rule:nonzero;stroke:none;stroke-width:0.72375;marker:none;visibility:visible;display:inline;overflow:visible;enable-background:accumulate"
         id="rect6614"
         width="93.753693"
         height="42.395081"
         x="169.10558"
         y="150.14714" />
      <path
         style="fill:#ffffff;stroke:none"
         d="m 231.60803,163.47131 c 0,0 -1.45354,7.26773 -0.48451,7.26773 0.96903,0 6.2987,-2.90709 6.2987,-2.90709 l 0,-7.75224 z"
         id="path6586"
         inkscape:connector-curvature="0" />
      <path
         style="fill:#ffffff;stroke:none"
         d="m 239.60253,161.04874 -0.48451,5.08741 c 0.99816,0.66851 1.52735,2.27496 4.36064,-0.72678 l 0,-5.81418 z"
         id="path6588"
         inkscape:connector-curvature="0"
         sodipodi:nodetypes="ccccc" />
      <path
         style="fill:#ffffff;stroke:none"
         d="m 245.90123,159.35293 -0.96903,5.08741 4.11838,-0.24225 0.24226,-5.57193 z"
         id="path6590"
         inkscape:connector-curvature="0" />
      <path
         style="fill:#ffffff;stroke:none"
         d="m 243.47866,167.58969 -5.08741,1.21129 -0.96903,2.66483 7.26772,0.72678 z"
         id="path6592"
         inkscape:connector-curvature="0"
         sodipodi:nodetypes="ccccc" />
      <path
         style="fill:#ffffff;stroke:none"
         d="m 236.45318,177.52225 c -0.24225,-1.45354 -1.45354,-6.54095 -1.45354,-6.54095 -1.50856,0.42306 -1.71891,1.81979 -5.57193,0.48451 l 1.45355,9.44805 z"
         id="path6594"
         inkscape:connector-curvature="0"
         sodipodi:nodetypes="ccccc" />
      <path
         style="fill:#ffffff;stroke:none"
         d="m 192.3623,166.62066 c 0,0 -1.45354,4.6029 0.24226,4.6029 1.6958,0 4.60289,0 4.60289,0 l -0.24225,-4.6029 z"
         id="path6598"
         inkscape:connector-curvature="0" />
      <path
         style="fill:#ffffff;stroke:none"
         d="m 184.85232,165.40937 c -0.96903,1.93806 -0.72678,8.23676 -0.72678,8.23676 0,0 -3.63386,1.45355 -3.63386,0.24226 0,-1.21129 0.48451,-10.41708 0.48451,-10.41708 z"
         id="path6600"
         inkscape:connector-curvature="0" />
      <path
         sodipodi:nodetypes="cccccc"
         inkscape:connector-curvature="0"
         id="path1083"
         d="m 210.53162,178.00677 -0.24226,6.05644 c -2.88798,2.446 -4.4181,0.81843 -6.05644,-0.48452 l -1.21128,-5.32966 1.6958,-3.63387 z"
         style="fill:#ffffff;stroke:none" />
      <path
         style="fill:#ffffff;stroke:none"
         d="m 202.41378,177.60826 c 0.5863,2.18032 -1.89071,6.77463 -1.89071,6.77463 -4.0956,0.93114 -4.08175,-0.85457 -4.39719,-2.42258 l -0.87943,-4.11837 3.01645,-2.73508 z"
         id="path1085"
         inkscape:connector-curvature="0"
         sodipodi:nodetypes="cccccc" />
      <path
         sodipodi:nodetypes="ccsccc"
         inkscape:connector-curvature="0"
         id="path1087"
         d="m 194.54262,176.06871 0.48451,4.36064 c 0,0 -6.78321,-0.96904 -5.32966,-1.93807 1.45354,-0.96903 0.96903,-5.08741 0.96903,-5.08741 l 1.93806,-0.48451 z"
         style="fill:#ffffff;stroke:none" />
      <path
         style="fill:#ffffff;stroke:none"
         d="m 190.6665,173.40387 -2.42258,3.63387 -3.26116,-3.31707 1.08084,-4.67743 3.57221,1.53237 z"
         id="path1089"
         inkscape:connector-curvature="0"
         sodipodi:nodetypes="cccccc" />
      <path
         style="fill:#ffffff;stroke:none"
         d="m 227.37073,182.64838 -6.01793,-0.27431 -0.28656,-6.0348 6.01793,-4.38894 c 1.53949,4.40227 1.17949,7.97184 0.28656,10.69805 z"
         id="path1093"
         inkscape:connector-curvature="0"
         sodipodi:nodetypes="ccccc" />
      <path
         sodipodi:nodetypes="ccccc"
         inkscape:connector-curvature="0"
         id="path1095"
         d="m 219.18265,177.03774 -0.69653,10.41708 c -3.86961,-0.64602 -5.88182,-2.26108 -6.0366,-4.84516 l -0.46435,-4.36063 z"
         style="fill:#ffffff;stroke:none" />
      <path
         style="fill:#ffffff;stroke:none"
         d="m 187.50001,165.93749 0.3125,3.4375 2.8125,0.3125 1.25,-5 z"
         id="path1081"
         inkscape:connector-curvature="0" />
      <path
         style="fill:#ffffff;stroke:none"
         d="m 204.00643,173.87262 -6.2987,-2.35473 1.69581,-5.29813 4.60289,-0.29434 z"
         id="path1129"
         inkscape:connector-curvature="0"
         sodipodi:nodetypes="ccccc" />
      <path
         style="fill:#ffffff;stroke:none"
         d="m 205.4617,174.34137 -0.79874,-2.18031 1.54814,-8.04898 6.11512,2.29645 -0.48451,7.26773 -2.38,2.62226 z"
         id="path1131"
         inkscape:connector-curvature="0"
         sodipodi:nodetypes="ccccccc" />
      <path
         sodipodi:nodetypes="ccccc"
         inkscape:connector-curvature="0"
         id="path1133"
         d="m 219.95522,175.52828 2.98993,-11.61037 -10.34497,2.67178 0.54244,10.82086 z"
         style="fill:#ffffff;stroke:none" />
      <path
         style="fill:#ffffff;stroke:none;display:inline"
         d="m 222.26481,166.63913 c 0,0 -1.07368,7.39693 1.42675,6.51125 2.50044,-0.88568 6.7869,-2.404 6.7869,-2.404 l -1.42674,-6.51125 z"
         id="path6598-9"
         inkscape:connector-curvature="0" />
    </g>
    <rect
       style="color:#000000;overflow:visible;opacity:1;vector-effect:none;fill:#ffffff;fill-opacity:1;fill-rule:evenodd;stroke:#000000;stroke-width:0.80268133px;stroke-linecap:butt;stroke-linejoin:miter;stroke-miterlimit:4;stroke-dasharray:none;stroke-dashoffset:0;stroke-opacity:1;marker:none;marker-start:none;marker-mid:none;marker-end:none;paint-order:normal;filter:url(#filter946)"
       id="rect888"
       width="261.72229"
       height="4.0769877"
       x="251.24823"
       y="587.6759" />
    <rect
       y="587.6759"
       x="251.24823"
       height="4.0769877"
       width="261.72229"
       id="rect950"
       style="color:#000000;overflow:visible;opacity:1;vector-effect:none;fill:#ffffff;fill-opacity:1;fill-rule:evenodd;stroke:#000000;stroke-width:0.80268133px;stroke-linecap:butt;stroke-linejoin:miter;stroke-miterlimit:4;stroke-dasharray:none;stroke-dashoffset:0;stroke-opacity:1;marker:none;marker-start:none;marker-mid:none;marker-end:none;paint-order:normal;" />
  </g>
</svg>
